<?xml version="1.0" standalone="no"?>
<!DOCTYPE svg PUBLIC "-//W3C//DTD SVG 20010904//EN"
 "http://www.w3.org/TR/2001/REC-SVG-20010904/DTD/svg10.dtd">
<svg version="1.0" xmlns="http://www.w3.org/2000/svg"
 width="200.000000pt" height="200.000000pt" viewBox="0 0 200.000000 200.000000"
 preserveAspectRatio="xMidYMid meet">
<metadata>
Created by potrace 1.14, written by Peter Selinger 2001-2017
</metadata>
<g transform="translate(0.000000,200.000000) scale(0.100000,-0.100000)"
fill="#000000" stroke="none">
<path d="M887 1907 l-118 -50 7 -31 c7 -32 7 -95 0 -132 -5 -26 30 -131 55
-162 10 -14 19 -30 19 -36 0 -22 60 -84 100 -104 31 -15 49 -18 76 -12 54 12
82 36 132 113 35 55 46 81 47 112 0 52 -13 133 -25 156 -15 27 -13 33 25 54
20 10 34 25 33 33 -2 7 -55 35 -118 61 l-115 48 -118 -50z m-58 -144 c-1 -33
-2 -35 -8 -13 -4 14 -6 31 -3 38 8 22 12 13 11 -25z m150 -87 c18 -2 43 -1 55
4 38 14 91 -15 109 -61 12 -30 13 -41 3 -46 -7 -5 -18 -22 -25 -39 -21 -52
-76 -98 -116 -98 -41 0 -89 40 -112 93 -8 19 -21 40 -29 48 -16 16 -18 33 -5
33 5 0 12 13 16 29 6 27 39 52 60 45 6 -2 25 -5 44 -8z"/>
<path d="M284 1749 c-55 -24 -88 -43 -86 -51 2 -7 3 -44 3 -83 -1 -59 3 -79
29 -131 50 -98 90 -134 149 -134 32 0 95 47 112 84 6 12 16 32 25 46 15 26 11
99 -8 150 -8 21 -5 28 16 45 14 12 26 25 26 30 0 6 -40 26 -89 46 l-88 37 -89
-39z m172 -190 c38 -31 -15 -151 -71 -161 -33 -7 -66 19 -97 75 -24 42 -23 51
4 93 10 16 144 10 164 -7z"/>
<path d="M1545 1748 c-78 -34 -97 -46 -89 -59 3 -5 6 -46 8 -91 3 -76 6 -88
41 -146 43 -70 75 -98 122 -105 44 -7 93 29 133 99 30 55 31 59 22 118 -5 34
-12 68 -16 78 -5 11 1 21 23 34 17 10 31 21 31 25 0 9 -171 80 -190 78 -8 0
-46 -14 -85 -31z m97 -180 c61 1 88 -11 88 -39 0 -13 4 -18 11 -13 13 8 -31
-69 -55 -98 -40 -46 -102 -26 -133 43 -9 21 -21 39 -26 39 -4 0 -5 6 0 13 4 6
8 19 10 27 2 18 33 41 45 34 5 -3 32 -6 60 -6z"/>
<path d="M792 1389 c-65 -8 -103 -30 -133 -76 l-17 -25 -15 22 c-23 33 -55 52
-95 57 -21 2 -45 5 -54 7 -10 2 -18 -2 -18 -9 0 -15 -51 -35 -90 -35 -37 0
-87 19 -93 34 -4 10 -18 11 -57 5 -68 -11 -98 -31 -120 -83 -15 -33 -25 -42
-47 -44 -57 -5 -59 -18 -29 -159 16 -70 30 -139 33 -153 2 -14 8 -40 13 -57 5
-21 5 -33 -2 -33 -5 0 -8 -10 -6 -22 l3 -23 261 -3 261 -2 13 -45 c7 -25 18
-50 26 -55 18 -16 730 -16 748 0 8 6 19 31 25 55 l11 45 259 0 c206 0 261 3
270 14 8 10 8 16 -2 24 -11 9 -6 45 26 197 37 169 39 187 25 202 -9 8 -28 16
-42 16 -21 0 -30 8 -45 42 -11 24 -31 51 -45 60 -33 22 -136 37 -136 19 0 -14
-52 -34 -90 -34 -38 0 -90 20 -90 34 0 9 -14 11 -54 5 -65 -8 -88 -20 -110
-55 l-18 -26 -16 24 c-28 40 -65 67 -102 73 -68 11 -110 13 -110 4 0 -18 -48
-39 -101 -45 -66 -7 -135 9 -152 36 -6 11 -14 19 -17 19 -3 -1 -33 -5 -68 -10z
m-274 -193 c-10 -18 7 -117 47 -283 9 -38 10 -53 1 -55 -19 -6 -443 -1 -460 5
-9 4 -16 17 -16 29 -1 13 -16 87 -34 166 -26 113 -30 144 -20 150 7 4 121 7
253 7 232 0 239 0 229 -19z m1445 15 c4 0 7 -9 7 -18 0 -28 -63 -317 -71 -327
-6 -7 -363 -12 -460 -7 -14 1 -13 15 11 121 15 66 28 124 29 128 0 4 4 22 7
40 4 18 1 38 -5 46 -6 7 -9 15 -7 17 4 4 467 4 489 0z m-515 -25 c18 -11 16
-21 -36 -256 l-49 -215 -364 0 -364 0 -22 100 c-12 55 -24 109 -27 120 -46
209 -50 237 -34 249 17 13 875 15 896 2z"/>
</g>
</svg>
